<svg xmlns="http://www.w3.org/2000/svg" xmlns:xlink="http://www.w3.org/1999/xlink" id="terminal" baseProfile="full" viewBox="0 0 1384 614" width="1384" version="1.1">
    <defs>
        <termtosvg:template_settings xmlns:termtosvg="https://github.com/nbedos/termtosvg">
            <termtosvg:screen_geometry columns="173" rows="36"/>
            <termtosvg:animation type="css"/>
        </termtosvg:template_settings>
        <style type="text/css" id="generated-style"><![CDATA[#screen {
                font-family: 'DejaVu Sans Mono', monospace;
                font-style: normal;
                font-size: 14px;
            }

        text {
            dominant-baseline: text-before-edge;
            white-space: pre;
        }
    
            :root {
                --animation-duration: 19649ms;
            }

            @keyframes roll {
                0.000%{transform:translateY(0px)}
0.010%{transform:translateY(-646px)}
35.605%{transform:translateY(-1292px)}
44.145%{transform:translateY(-1938px)}
44.542%{transform:translateY(-2584px)}
44.761%{transform:translateY(-3230px)}
45.768%{transform:translateY(-3876px)}
45.778%{transform:translateY(-4522px)}
46.481%{transform:translateY(-5168px)}
46.496%{transform:translateY(-5814px)}
46.639%{transform:translateY(-6460px)}
55.682%{transform:translateY(-7106px)}
55.916%{transform:translateY(-7752px)}
56.237%{transform:translateY(-8398px)}
56.756%{transform:translateY(-9044px)}
57.138%{transform:translateY(-9690px)}
57.336%{transform:translateY(-10336px)}
58.364%{transform:translateY(-10982px)}
58.385%{transform:translateY(-11628px)}
58.614%{transform:translateY(-12274px)}
58.639%{transform:translateY(-12920px)}
58.771%{transform:translateY(-13566px)}
68.232%{transform:translateY(-14212px)}
69.113%{transform:translateY(-14858px)}
69.454%{transform:translateY(-15504px)}
69.897%{transform:translateY(-16150px)}
70.345%{transform:translateY(-16796px)}
70.370%{transform:translateY(-17442px)}
76.177%{transform:translateY(-18088px)}
78.477%{transform:translateY(-18734px)}
79.694%{transform:translateY(-19380px)}
84.732%{transform:translateY(-20026px)}
100.000%{transform:translateY(-20026px)}
            }

            #screen_view {
                animation-duration: 19649ms;
                animation-iteration-count:infinite;
                animation-name:roll;
                animation-timing-function: steps(1,end);
                animation-fill-mode: forwards;
            }
        ]]></style>
        <style type="text/css" id="user-style">
            /* The colors defined below are the default 16 colors used for rendering text of the terminal. Adjust
               them as needed.
               PowerShell colors based on https://en.wikipedia.org/wiki/ANSI_escape_code#Colors */
            .foreground {fill: #cccccc;}
            .background {fill: #0c0c0c;}
            .color0 {fill: #0c0c0c;}
            .color1 {fill: #c50f1f;}
            .color2 {fill: #13a10e;}
            .color3 {fill: #c19c00;}
            .color4 {fill: #0037da;}
            .color5 {fill: #881798;}
            .color6 {fill: #3a96dd;}
            .color7 {fill: #cccccc;}
            .color8 {fill: #767676;}
            .color9 {fill: #e74856;}
            .color10 {fill: #16c60c;}
            .color11 {fill: #f9f1a5;}
            .color12 {fill: #3b78ff;}
            .color13 {fill: #b4009e;}
            .color14 {fill: #61d6d6;}
            .color15 {fill: #f2f2f2;}
        </style>
    </defs>
    <svg id="screen" width="1384" height="612" viewBox="0 0 1384 612" preserveAspectRatio="xMidYMin slice">
    <rect class="background" height="100%" width="100%" x="0" y="0"/><defs><g id="g1"><text x="0" textLength="232" class="foreground"> * Serving Flask app 'server'</text></g><g id="g2"><text x="0" textLength="144" class="foreground"> * Debug mode: off</text></g><g id="g3"><text x="0" textLength="8" class="background"> </text></g><g id="g4"><text x="0" textLength="944" font-weight="bold" class="color9">WARNING: This is a development server. Do not use it in a production deployment. Use a production WSGI server instead.</text></g><g id="g5"><text x="0" textLength="296" class="foreground"> * Running on all addresses (0.0.0.0)</text></g><g id="g6"><text x="0" textLength="280" class="foreground"> * Running on http://127.0.0.1:8080</text></g><g id="g7"><text x="0" textLength="312" class="foreground"> * Running on http://192.168.7.148:8080</text></g><g id="g8"><text x="0" textLength="160" class="color3">Press CTRL+C to quit</text></g><g id="g9"><text x="0" textLength="40" class="foreground">PS &gt; </text><text x="40" textLength="8" class="background"> </text></g><g id="g10"><text x="0" textLength="48" class="foreground">PS &gt; p</text><text x="48" textLength="8" class="background"> </text></g><g id="g11"><text x="0" textLength="56" class="foreground">PS &gt; pw</text><text x="56" textLength="8" class="background"> </text></g><g id="g12"><text x="0" textLength="64" class="foreground">PS &gt; pwd</text><text x="64" textLength="8" class="background"> </text></g><g id="g13"><text x="0" textLength="64" class="foreground">PS &gt; pwd</text></g><g id="g14"><text x="0" textLength="504" class="foreground">192.168.7.148 - - [14/Sep/2022 23:52:49] "GET / HTTP/1.1" 200 -</text></g><g id="g15"><text x="0" textLength="152" class="foreground">Path               </text></g><g id="g16"><text x="0" textLength="152" class="foreground">----               </text></g><g id="g17"><text x="0" textLength="152" class="foreground">C:\WINDOWS\system32</text></g><g id="g18"><text x="0" textLength="560" class="foreground">192.168.7.148 - - [14/Sep/2022 23:52:49] "POST /output HTTP/1.1" 200 -</text></g><g id="g19"><text x="0" textLength="48" class="foreground">PS &gt; w</text><text x="48" textLength="8" class="background"> </text></g><g id="g20"><text x="0" textLength="56" class="foreground">PS &gt; wh</text><text x="56" textLength="8" class="background"> </text></g><g id="g21"><text x="0" textLength="64" class="foreground">PS &gt; who</text><text x="64" textLength="8" class="background"> </text></g><g id="g22"><text x="0" textLength="72" class="foreground">PS &gt; whoa</text><text x="72" textLength="8" class="background"> </text></g><g id="g23"><text x="0" textLength="80" class="foreground">PS &gt; whoam</text><text x="80" textLength="8" class="background"> </text></g><g id="g24"><text x="0" textLength="88" class="foreground">PS &gt; whoami</text><text x="88" textLength="8" class="background"> </text></g><g id="g25"><text x="0" textLength="88" class="foreground">PS &gt; whoami</text></g><g id="g26"><text x="0" textLength="504" class="foreground">192.168.7.148 - - [14/Sep/2022 23:52:51] "GET / HTTP/1.1" 200 -</text></g><g id="g27"><text x="0" textLength="152" class="foreground">nt authority\system</text></g><g id="g28"><text x="0" textLength="560" class="foreground">192.168.7.148 - - [14/Sep/2022 23:52:51] "POST /output HTTP/1.1" 200 -</text></g><g id="g29"><text x="0" textLength="48" class="foreground">PS &gt; e</text><text x="48" textLength="8" class="background"> </text></g><g id="g30"><text x="0" textLength="56" class="foreground">PS &gt; ex</text><text x="56" textLength="8" class="background"> </text></g><g id="g31"><text x="0" textLength="64" class="foreground">PS &gt; exi</text><text x="64" textLength="8" class="background"> </text></g><g id="g32"><text x="0" textLength="72" class="foreground">PS &gt; exit</text><text x="72" textLength="8" class="background"> </text></g><g id="g33"><text x="0" textLength="72" class="foreground">PS &gt; exit</text></g><g id="g34"><text x="0" textLength="504" class="foreground">192.168.7.148 - - [14/Sep/2022 23:52:54] "GET / HTTP/1.1" 200 -</text></g><g id="g35"><text x="0" textLength="16" class="foreground">^C</text><text x="16" textLength="8" class="background"> </text></g></defs><g id="screen_view"><g><use xlink:href="#g1" y="0"/><use xlink:href="#g2" y="17"/><rect x="0" y="34" width="8" height="17" class="foreground"/><use xlink:href="#g3" y="34"/></g><g><use xlink:href="#g1" y="646"/><use xlink:href="#g2" y="663"/><use xlink:href="#g4" y="680"/><use xlink:href="#g5" y="697"/><use xlink:href="#g6" y="714"/><use xlink:href="#g7" y="731"/><use xlink:href="#g8" y="748"/><rect x="0" y="765" width="8" height="17" class="foreground"/><use xlink:href="#g3" y="765"/></g><g><use xlink:href="#g1" y="1292"/><use xlink:href="#g2" y="1309"/><use xlink:href="#g4" y="1326"/><use xlink:href="#g5" y="1343"/><use xlink:href="#g6" y="1360"/><use xlink:href="#g7" y="1377"/><use xlink:href="#g8" y="1394"/><rect x="40" y="1411" width="8" height="17" class="foreground"/><use xlink:href="#g9" y="1411"/></g><g><use xlink:href="#g1" y="1938"/><use xlink:href="#g2" y="1955"/><use xlink:href="#g4" y="1972"/><use xlink:href="#g5" y="1989"/><use xlink:href="#g6" y="2006"/><use xlink:href="#g7" y="2023"/><use xlink:href="#g8" y="2040"/><rect x="48" y="2057" width="8" height="17" class="foreground"/><use xlink:href="#g10" y="2057"/></g><g><use xlink:href="#g1" y="2584"/><use xlink:href="#g2" y="2601"/><use xlink:href="#g4" y="2618"/><use xlink:href="#g5" y="2635"/><use xlink:href="#g6" y="2652"/><use xlink:href="#g7" y="2669"/><use xlink:href="#g8" y="2686"/><rect x="56" y="2703" width="8" height="17" class="foreground"/><use xlink:href="#g11" y="2703"/></g><g><use xlink:href="#g1" y="3230"/><use xlink:href="#g2" y="3247"/><use xlink:href="#g4" y="3264"/><use xlink:href="#g5" y="3281"/><use xlink:href="#g6" y="3298"/><use xlink:href="#g7" y="3315"/><use xlink:href="#g8" y="3332"/><rect x="64" y="3349" width="8" height="17" class="foreground"/><use xlink:href="#g12" y="3349"/></g><g><use xlink:href="#g1" y="3876"/><use xlink:href="#g2" y="3893"/><use xlink:href="#g4" y="3910"/><use xlink:href="#g5" y="3927"/><use xlink:href="#g6" y="3944"/><use xlink:href="#g7" y="3961"/><use xlink:href="#g8" y="3978"/><use xlink:href="#g13" y="3995"/><rect x="0" y="4012" width="8" height="17" class="foreground"/><use xlink:href="#g3" y="4012"/></g><g><use xlink:href="#g1" y="4522"/><use xlink:href="#g2" y="4539"/><use xlink:href="#g4" y="4556"/><use xlink:href="#g5" y="4573"/><use xlink:href="#g6" y="4590"/><use xlink:href="#g7" y="4607"/><use xlink:href="#g8" y="4624"/><use xlink:href="#g13" y="4641"/><use xlink:href="#g14" y="4658"/><rect x="0" y="4675" width="8" height="17" class="foreground"/><use xlink:href="#g3" y="4675"/></g><g><use xlink:href="#g1" y="5168"/><use xlink:href="#g2" y="5185"/><use xlink:href="#g4" y="5202"/><use xlink:href="#g5" y="5219"/><use xlink:href="#g6" y="5236"/><use xlink:href="#g7" y="5253"/><use xlink:href="#g8" y="5270"/><use xlink:href="#g13" y="5287"/><use xlink:href="#g14" y="5304"/><use xlink:href="#g15" y="5338"/><use xlink:href="#g16" y="5355"/><use xlink:href="#g17" y="5372"/><rect x="0" y="5440" width="8" height="17" class="foreground"/><use xlink:href="#g3" y="5440"/></g><g><use xlink:href="#g1" y="5814"/><use xlink:href="#g2" y="5831"/><use xlink:href="#g4" y="5848"/><use xlink:href="#g5" y="5865"/><use xlink:href="#g6" y="5882"/><use xlink:href="#g7" y="5899"/><use xlink:href="#g8" y="5916"/><use xlink:href="#g13" y="5933"/><use xlink:href="#g14" y="5950"/><use xlink:href="#g15" y="5984"/><use xlink:href="#g16" y="6001"/><use xlink:href="#g17" y="6018"/><use xlink:href="#g18" y="6086"/><rect x="0" y="6103" width="8" height="17" class="foreground"/><use xlink:href="#g3" y="6103"/></g><g><use xlink:href="#g1" y="6460"/><use xlink:href="#g2" y="6477"/><use xlink:href="#g4" y="6494"/><use xlink:href="#g5" y="6511"/><use xlink:href="#g6" y="6528"/><use xlink:href="#g7" y="6545"/><use xlink:href="#g8" y="6562"/><use xlink:href="#g13" y="6579"/><use xlink:href="#g14" y="6596"/><use xlink:href="#g15" y="6630"/><use xlink:href="#g16" y="6647"/><use xlink:href="#g17" y="6664"/><use xlink:href="#g18" y="6732"/><rect x="40" y="6749" width="8" height="17" class="foreground"/><use xlink:href="#g9" y="6749"/></g><g><use xlink:href="#g1" y="7106"/><use xlink:href="#g2" y="7123"/><use xlink:href="#g4" y="7140"/><use xlink:href="#g5" y="7157"/><use xlink:href="#g6" y="7174"/><use xlink:href="#g7" y="7191"/><use xlink:href="#g8" y="7208"/><use xlink:href="#g13" y="7225"/><use xlink:href="#g14" y="7242"/><use xlink:href="#g15" y="7276"/><use xlink:href="#g16" y="7293"/><use xlink:href="#g17" y="7310"/><use xlink:href="#g18" y="7378"/><rect x="48" y="7395" width="8" height="17" class="foreground"/><use xlink:href="#g19" y="7395"/></g><g><use xlink:href="#g1" y="7752"/><use xlink:href="#g2" y="7769"/><use xlink:href="#g4" y="7786"/><use xlink:href="#g5" y="7803"/><use xlink:href="#g6" y="7820"/><use xlink:href="#g7" y="7837"/><use xlink:href="#g8" y="7854"/><use xlink:href="#g13" y="7871"/><use xlink:href="#g14" y="7888"/><use xlink:href="#g15" y="7922"/><use xlink:href="#g16" y="7939"/><use xlink:href="#g17" y="7956"/><use xlink:href="#g18" y="8024"/><rect x="56" y="8041" width="8" height="17" class="foreground"/><use xlink:href="#g20" y="8041"/></g><g><use xlink:href="#g1" y="8398"/><use xlink:href="#g2" y="8415"/><use xlink:href="#g4" y="8432"/><use xlink:href="#g5" y="8449"/><use xlink:href="#g6" y="8466"/><use xlink:href="#g7" y="8483"/><use xlink:href="#g8" y="8500"/><use xlink:href="#g13" y="8517"/><use xlink:href="#g14" y="8534"/><use xlink:href="#g15" y="8568"/><use xlink:href="#g16" y="8585"/><use xlink:href="#g17" y="8602"/><use xlink:href="#g18" y="8670"/><rect x="64" y="8687" width="8" height="17" class="foreground"/><use xlink:href="#g21" y="8687"/></g><g><use xlink:href="#g1" y="9044"/><use xlink:href="#g2" y="9061"/><use xlink:href="#g4" y="9078"/><use xlink:href="#g5" y="9095"/><use xlink:href="#g6" y="9112"/><use xlink:href="#g7" y="9129"/><use xlink:href="#g8" y="9146"/><use xlink:href="#g13" y="9163"/><use xlink:href="#g14" y="9180"/><use xlink:href="#g15" y="9214"/><use xlink:href="#g16" y="9231"/><use xlink:href="#g17" y="9248"/><use xlink:href="#g18" y="9316"/><rect x="72" y="9333" width="8" height="17" class="foreground"/><use xlink:href="#g22" y="9333"/></g><g><use xlink:href="#g1" y="9690"/><use xlink:href="#g2" y="9707"/><use xlink:href="#g4" y="9724"/><use xlink:href="#g5" y="9741"/><use xlink:href="#g6" y="9758"/><use xlink:href="#g7" y="9775"/><use xlink:href="#g8" y="9792"/><use xlink:href="#g13" y="9809"/><use xlink:href="#g14" y="9826"/><use xlink:href="#g15" y="9860"/><use xlink:href="#g16" y="9877"/><use xlink:href="#g17" y="9894"/><use xlink:href="#g18" y="9962"/><rect x="80" y="9979" width="8" height="17" class="foreground"/><use xlink:href="#g23" y="9979"/></g><g><use xlink:href="#g1" y="10336"/><use xlink:href="#g2" y="10353"/><use xlink:href="#g4" y="10370"/><use xlink:href="#g5" y="10387"/><use xlink:href="#g6" y="10404"/><use xlink:href="#g7" y="10421"/><use xlink:href="#g8" y="10438"/><use xlink:href="#g13" y="10455"/><use xlink:href="#g14" y="10472"/><use xlink:href="#g15" y="10506"/><use xlink:href="#g16" y="10523"/><use xlink:href="#g17" y="10540"/><use xlink:href="#g18" y="10608"/><rect x="88" y="10625" width="8" height="17" class="foreground"/><use xlink:href="#g24" y="10625"/></g><g><use xlink:href="#g1" y="10982"/><use xlink:href="#g2" y="10999"/><use xlink:href="#g4" y="11016"/><use xlink:href="#g5" y="11033"/><use xlink:href="#g6" y="11050"/><use xlink:href="#g7" y="11067"/><use xlink:href="#g8" y="11084"/><use xlink:href="#g13" y="11101"/><use xlink:href="#g14" y="11118"/><use xlink:href="#g15" y="11152"/><use xlink:href="#g16" y="11169"/><use xlink:href="#g17" y="11186"/><use xlink:href="#g18" y="11254"/><use xlink:href="#g25" y="11271"/><rect x="0" y="11288" width="8" height="17" class="foreground"/><use xlink:href="#g3" y="11288"/></g><g><use xlink:href="#g1" y="11628"/><use xlink:href="#g2" y="11645"/><use xlink:href="#g4" y="11662"/><use xlink:href="#g5" y="11679"/><use xlink:href="#g6" y="11696"/><use xlink:href="#g7" y="11713"/><use xlink:href="#g8" y="11730"/><use xlink:href="#g13" y="11747"/><use xlink:href="#g14" y="11764"/><use xlink:href="#g15" y="11798"/><use xlink:href="#g16" y="11815"/><use xlink:href="#g17" y="11832"/><use xlink:href="#g18" y="11900"/><use xlink:href="#g25" y="11917"/><use xlink:href="#g26" y="11934"/><rect x="0" y="11951" width="8" height="17" class="foreground"/><use xlink:href="#g3" y="11951"/></g><g><use xlink:href="#g1" y="12274"/><use xlink:href="#g2" y="12291"/><use xlink:href="#g4" y="12308"/><use xlink:href="#g5" y="12325"/><use xlink:href="#g6" y="12342"/><use xlink:href="#g7" y="12359"/><use xlink:href="#g8" y="12376"/><use xlink:href="#g13" y="12393"/><use xlink:href="#g14" y="12410"/><use xlink:href="#g15" y="12444"/><use xlink:href="#g16" y="12461"/><use xlink:href="#g17" y="12478"/><use xlink:href="#g18" y="12546"/><use xlink:href="#g25" y="12563"/><use xlink:href="#g26" y="12580"/><use xlink:href="#g27" y="12597"/><rect x="0" y="12631" width="8" height="17" class="foreground"/><use xlink:href="#g3" y="12631"/></g><g><use xlink:href="#g1" y="12920"/><use xlink:href="#g2" y="12937"/><use xlink:href="#g4" y="12954"/><use xlink:href="#g5" y="12971"/><use xlink:href="#g6" y="12988"/><use xlink:href="#g7" y="13005"/><use xlink:href="#g8" y="13022"/><use xlink:href="#g13" y="13039"/><use xlink:href="#g14" y="13056"/><use xlink:href="#g15" y="13090"/><use xlink:href="#g16" y="13107"/><use xlink:href="#g17" y="13124"/><use xlink:href="#g18" y="13192"/><use xlink:href="#g25" y="13209"/><use xlink:href="#g26" y="13226"/><use xlink:href="#g27" y="13243"/><use xlink:href="#g28" y="13277"/><rect x="0" y="13294" width="8" height="17" class="foreground"/><use xlink:href="#g3" y="13294"/></g><g><use xlink:href="#g1" y="13566"/><use xlink:href="#g2" y="13583"/><use xlink:href="#g4" y="13600"/><use xlink:href="#g5" y="13617"/><use xlink:href="#g6" y="13634"/><use xlink:href="#g7" y="13651"/><use xlink:href="#g8" y="13668"/><use xlink:href="#g13" y="13685"/><use xlink:href="#g14" y="13702"/><use xlink:href="#g15" y="13736"/><use xlink:href="#g16" y="13753"/><use xlink:href="#g17" y="13770"/><use xlink:href="#g18" y="13838"/><use xlink:href="#g25" y="13855"/><use xlink:href="#g26" y="13872"/><use xlink:href="#g27" y="13889"/><use xlink:href="#g28" y="13923"/><rect x="40" y="13940" width="8" height="17" class="foreground"/><use xlink:href="#g9" y="13940"/></g><g><use xlink:href="#g1" y="14212"/><use xlink:href="#g2" y="14229"/><use xlink:href="#g4" y="14246"/><use xlink:href="#g5" y="14263"/><use xlink:href="#g6" y="14280"/><use xlink:href="#g7" y="14297"/><use xlink:href="#g8" y="14314"/><use xlink:href="#g13" y="14331"/><use xlink:href="#g14" y="14348"/><use xlink:href="#g15" y="14382"/><use xlink:href="#g16" y="14399"/><use xlink:href="#g17" y="14416"/><use xlink:href="#g18" y="14484"/><use xlink:href="#g25" y="14501"/><use xlink:href="#g26" y="14518"/><use xlink:href="#g27" y="14535"/><use xlink:href="#g28" y="14569"/><rect x="48" y="14586" width="8" height="17" class="foreground"/><use xlink:href="#g29" y="14586"/></g><g><use xlink:href="#g1" y="14858"/><use xlink:href="#g2" y="14875"/><use xlink:href="#g4" y="14892"/><use xlink:href="#g5" y="14909"/><use xlink:href="#g6" y="14926"/><use xlink:href="#g7" y="14943"/><use xlink:href="#g8" y="14960"/><use xlink:href="#g13" y="14977"/><use xlink:href="#g14" y="14994"/><use xlink:href="#g15" y="15028"/><use xlink:href="#g16" y="15045"/><use xlink:href="#g17" y="15062"/><use xlink:href="#g18" y="15130"/><use xlink:href="#g25" y="15147"/><use xlink:href="#g26" y="15164"/><use xlink:href="#g27" y="15181"/><use xlink:href="#g28" y="15215"/><rect x="56" y="15232" width="8" height="17" class="foreground"/><use xlink:href="#g30" y="15232"/></g><g><use xlink:href="#g1" y="15504"/><use xlink:href="#g2" y="15521"/><use xlink:href="#g4" y="15538"/><use xlink:href="#g5" y="15555"/><use xlink:href="#g6" y="15572"/><use xlink:href="#g7" y="15589"/><use xlink:href="#g8" y="15606"/><use xlink:href="#g13" y="15623"/><use xlink:href="#g14" y="15640"/><use xlink:href="#g15" y="15674"/><use xlink:href="#g16" y="15691"/><use xlink:href="#g17" y="15708"/><use xlink:href="#g18" y="15776"/><use xlink:href="#g25" y="15793"/><use xlink:href="#g26" y="15810"/><use xlink:href="#g27" y="15827"/><use xlink:href="#g28" y="15861"/><rect x="64" y="15878" width="8" height="17" class="foreground"/><use xlink:href="#g31" y="15878"/></g><g><use xlink:href="#g1" y="16150"/><use xlink:href="#g2" y="16167"/><use xlink:href="#g4" y="16184"/><use xlink:href="#g5" y="16201"/><use xlink:href="#g6" y="16218"/><use xlink:href="#g7" y="16235"/><use xlink:href="#g8" y="16252"/><use xlink:href="#g13" y="16269"/><use xlink:href="#g14" y="16286"/><use xlink:href="#g15" y="16320"/><use xlink:href="#g16" y="16337"/><use xlink:href="#g17" y="16354"/><use xlink:href="#g18" y="16422"/><use xlink:href="#g25" y="16439"/><use xlink:href="#g26" y="16456"/><use xlink:href="#g27" y="16473"/><use xlink:href="#g28" y="16507"/><rect x="72" y="16524" width="8" height="17" class="foreground"/><use xlink:href="#g32" y="16524"/></g><g><use xlink:href="#g1" y="16796"/><use xlink:href="#g2" y="16813"/><use xlink:href="#g4" y="16830"/><use xlink:href="#g5" y="16847"/><use xlink:href="#g6" y="16864"/><use xlink:href="#g7" y="16881"/><use xlink:href="#g8" y="16898"/><use xlink:href="#g13" y="16915"/><use xlink:href="#g14" y="16932"/><use xlink:href="#g15" y="16966"/><use xlink:href="#g16" y="16983"/><use xlink:href="#g17" y="17000"/><use xlink:href="#g18" y="17068"/><use xlink:href="#g25" y="17085"/><use xlink:href="#g26" y="17102"/><use xlink:href="#g27" y="17119"/><use xlink:href="#g28" y="17153"/><use xlink:href="#g33" y="17170"/><rect x="0" y="17187" width="8" height="17" class="foreground"/><use xlink:href="#g3" y="17187"/></g><g><use xlink:href="#g1" y="17442"/><use xlink:href="#g2" y="17459"/><use xlink:href="#g4" y="17476"/><use xlink:href="#g5" y="17493"/><use xlink:href="#g6" y="17510"/><use xlink:href="#g7" y="17527"/><use xlink:href="#g8" y="17544"/><use xlink:href="#g13" y="17561"/><use xlink:href="#g14" y="17578"/><use xlink:href="#g15" y="17612"/><use xlink:href="#g16" y="17629"/><use xlink:href="#g17" y="17646"/><use xlink:href="#g18" y="17714"/><use xlink:href="#g25" y="17731"/><use xlink:href="#g26" y="17748"/><use xlink:href="#g27" y="17765"/><use xlink:href="#g28" y="17799"/><use xlink:href="#g33" y="17816"/><use xlink:href="#g34" y="17833"/><rect x="0" y="17850" width="8" height="17" class="foreground"/><use xlink:href="#g3" y="17850"/></g><g><use xlink:href="#g1" y="18088"/><use xlink:href="#g2" y="18105"/><use xlink:href="#g4" y="18122"/><use xlink:href="#g5" y="18139"/><use xlink:href="#g6" y="18156"/><use xlink:href="#g7" y="18173"/><use xlink:href="#g8" y="18190"/><use xlink:href="#g13" y="18207"/><use xlink:href="#g14" y="18224"/><use xlink:href="#g15" y="18258"/><use xlink:href="#g16" y="18275"/><use xlink:href="#g17" y="18292"/><use xlink:href="#g18" y="18360"/><use xlink:href="#g25" y="18377"/><use xlink:href="#g26" y="18394"/><use xlink:href="#g27" y="18411"/><use xlink:href="#g28" y="18445"/><use xlink:href="#g33" y="18462"/><use xlink:href="#g34" y="18479"/><rect x="0" y="18513" width="8" height="17" class="foreground"/><use xlink:href="#g3" y="18513"/></g><g><use xlink:href="#g1" y="18734"/><use xlink:href="#g2" y="18751"/><use xlink:href="#g4" y="18768"/><use xlink:href="#g5" y="18785"/><use xlink:href="#g6" y="18802"/><use xlink:href="#g7" y="18819"/><use xlink:href="#g8" y="18836"/><use xlink:href="#g13" y="18853"/><use xlink:href="#g14" y="18870"/><use xlink:href="#g15" y="18904"/><use xlink:href="#g16" y="18921"/><use xlink:href="#g17" y="18938"/><use xlink:href="#g18" y="19006"/><use xlink:href="#g25" y="19023"/><use xlink:href="#g26" y="19040"/><use xlink:href="#g27" y="19057"/><use xlink:href="#g28" y="19091"/><use xlink:href="#g33" y="19108"/><use xlink:href="#g34" y="19125"/><rect x="0" y="19176" width="8" height="17" class="foreground"/><use xlink:href="#g3" y="19176"/></g><g><use xlink:href="#g1" y="19380"/><use xlink:href="#g2" y="19397"/><use xlink:href="#g4" y="19414"/><use xlink:href="#g5" y="19431"/><use xlink:href="#g6" y="19448"/><use xlink:href="#g7" y="19465"/><use xlink:href="#g8" y="19482"/><use xlink:href="#g13" y="19499"/><use xlink:href="#g14" y="19516"/><use xlink:href="#g15" y="19550"/><use xlink:href="#g16" y="19567"/><use xlink:href="#g17" y="19584"/><use xlink:href="#g18" y="19652"/><use xlink:href="#g25" y="19669"/><use xlink:href="#g26" y="19686"/><use xlink:href="#g27" y="19703"/><use xlink:href="#g28" y="19737"/><use xlink:href="#g33" y="19754"/><use xlink:href="#g34" y="19771"/><rect x="0" y="19839" width="8" height="17" class="foreground"/><use xlink:href="#g3" y="19839"/></g><g><use xlink:href="#g1" y="20026"/><use xlink:href="#g2" y="20043"/><use xlink:href="#g4" y="20060"/><use xlink:href="#g5" y="20077"/><use xlink:href="#g6" y="20094"/><use xlink:href="#g7" y="20111"/><use xlink:href="#g8" y="20128"/><use xlink:href="#g13" y="20145"/><use xlink:href="#g14" y="20162"/><use xlink:href="#g15" y="20196"/><use xlink:href="#g16" y="20213"/><use xlink:href="#g17" y="20230"/><use xlink:href="#g18" y="20298"/><use xlink:href="#g25" y="20315"/><use xlink:href="#g26" y="20332"/><use xlink:href="#g27" y="20349"/><use xlink:href="#g28" y="20383"/><use xlink:href="#g33" y="20400"/><use xlink:href="#g34" y="20417"/><rect x="16" y="20485" width="8" height="17" class="foreground"/><use xlink:href="#g35" y="20485"/></g></g></svg>
</svg>